<svg width="68" height="65" viewBox="0 0 68 65" fill="none" xmlns="http://www.w3.org/2000/svg">
<path d="M63.73 28.08C61.97 27.84 61.52 27.2 61.87 25.59C62.26 23.77 61.43 23.0101 59.61 23.1701C58.99 23.1701 58.36 23.1701 57.73 23.1701C42.34 23.1701 26.94 23.2501 11.55 23.1701C9.41998 23.1701 8.88998 23.92 9.07998 25.85C9.73009 32.8177 12.4109 39.4415 16.79 44.9001C17.29 45.5501 17.79 47.12 18.89 46.25C19.99 45.38 18.57 44.55 18.04 43.85C14.2889 39.0679 11.8147 33.4108 10.85 27.4101C10.45 24.8501 10.5 24.83 13.04 24.83H57.55C60.47 24.83 60.46 24.83 59.95 27.72C58.5785 36.3352 53.9631 44.0993 47.05 49.4201C45.92 50.3001 44.89 51.13 43.34 50.96C42.73 50.89 41.92 50.9601 41.88 51.7901C41.84 52.6201 42.65 52.6401 43.27 52.6801C43.89 52.7201 44.38 52.6801 44.94 52.6801C48.49 52.9501 51.09 54.79 53.5 57.88C49.5 57.88 45.86 57.88 42.27 57.88C41.6 57.88 40.66 57.74 40.66 58.71C40.66 59.68 41.66 59.5301 42.27 59.5301C45.75 59.5301 49.27 59.5301 52.72 59.5301C53.5 59.5301 54.51 59.8501 54.98 58.9001C55.45 57.9501 54.85 57.03 54.28 56.23C52.61 53.87 50.21 52.5 47.45 51.36C49.2517 49.9075 50.9461 48.3267 52.52 46.63C53.0732 45.8933 53.8053 45.31 54.6471 44.9355C55.4889 44.5609 56.4124 44.4076 57.33 44.49C59.2964 44.5965 61.24 44.0266 62.8374 42.8749C64.4348 41.7232 65.5897 40.0594 66.11 38.1601C66.6237 36.6472 67.0576 35.1084 67.41 33.5501C68 30.7501 66.6 28.47 63.73 28.08ZM59.82 42.5501C59.1304 42.7381 58.4288 42.8783 57.72 42.97C57.06 42.88 56.38 43.25 56.08 42.63C55.78 42.01 56.37 41.74 56.62 41.35C58.4977 38.333 59.926 35.0587 60.86 31.63C61.12 30.71 60.92 29.4 62.54 29.52C64.16 29.64 65.44 30.14 65.87 31.83C66.72 35.17 63.17 41.4601 59.82 42.5501Z" fill="#471F0F"/>
<path d="M40.76 51.88C39.9 47.53 36.05 45.88 32.22 48.17C30.7638 49.2155 29.4785 50.4806 28.41 51.92C27.8624 50.8239 26.9493 49.9532 25.8283 49.4585C24.7074 48.9637 23.4488 48.8758 22.27 49.2099C21.1974 49.4356 20.0793 49.2576 19.13 48.7099C16.39 47.4399 13.54 46.57 10.47 47.28C4.99997 48.54 2.80997 52.77 1.12997 57.52C0.619968 58.98 1.12997 59.5199 2.44997 59.8599C6.17997 60.6999 9.86997 60.8599 13.54 59.1899C13.75 61.6999 14.66 63.7399 17.17 64.3299C21.39 65.3299 24.32 63.0199 27.02 59.9599C29.31 63.7399 31.38 64.6399 34.55 63.3499C38.57 61.7199 41.59 56.12 40.76 51.88ZM14 56.5C13.35 57.9 11.75 58.3 10.32 58.62C8.96645 58.9307 7.57036 59.0118 6.18997 58.8599C2.18997 58.3699 2.18997 58.3899 4.04997 54.6999C7.15997 48.6099 13.13 46.89 18.76 50.55C16.6984 52.1017 15.0613 54.1481 14 56.5ZM19 62.91C16.82 62.91 15.58 61.82 15.37 59.75C14.95 55.55 19.37 50.6599 23.6 50.6899C24.0857 50.641 24.5763 50.7 25.0367 50.8624C25.4971 51.0248 25.9161 51.2866 26.2637 51.6295C26.6113 51.9723 26.879 52.3877 27.0477 52.8458C27.2165 53.3039 27.2821 53.7936 27.24 54.28C27.21 58.52 23 62.92 18.92 62.91H19ZM34.72 61.4699C31.72 63.2799 28.82 61.7199 28.72 58.24C28.6131 56.6705 28.9002 55.0991 29.5551 53.6688C30.21 52.2385 31.212 50.9946 32.47 50.05C33.89 48.96 35.53 48.2099 37.31 49.1999C39.09 50.1899 39.31 51.73 39.31 53.52C38.93 56.87 37.6 59.6799 34.64 61.4699H34.72Z" fill="#471F0F"/>
<path d="M36.6599 18.52C37.5999 17.89 36.7199 17.32 36.3399 16.84C34.2299 14.18 34.2299 11.4 35.8399 8.52001C36.3885 7.64276 36.8795 6.73086 37.3099 5.79003C37.6689 5.07448 37.8508 4.28313 37.8404 3.48266C37.83 2.68218 37.6275 1.89587 37.2499 1.18993C37.1957 1.06113 37.115 0.945194 37.0132 0.849477C36.9114 0.753759 36.7906 0.680436 36.6587 0.634267C36.5268 0.588097 36.3866 0.570091 36.2473 0.58141C36.108 0.592729 35.9727 0.633079 35.8499 0.69994C35.3799 0.94994 35.4699 1.37 35.6999 1.76C36.7599 3.64 35.9199 5.25 34.9299 6.76C33.8026 8.45083 33.1152 10.3963 32.9299 12.42C33.0163 14.3635 33.7165 16.2295 34.9299 17.75C35.3899 18.31 35.8999 19 36.6599 18.52Z" fill="#471F0F"/>
<path d="M46.4 18.4399C47.01 17.8999 46.46 17.44 46.12 17.03C43.61 14.03 43.84 10.97 45.88 7.86998C46.7665 6.56477 47.3004 5.05247 47.43 3.47997C47.4506 2.69498 47.2533 1.91965 46.86 1.23998C46.8094 1.11038 46.7323 0.992746 46.6336 0.894642C46.5349 0.796537 46.4169 0.720159 46.287 0.670276C46.1571 0.620394 46.0183 0.598125 45.8793 0.604969C45.7403 0.611812 45.6043 0.647546 45.48 0.709949C44.86 1.02995 45.17 1.52994 45.4 1.94994C46.21 3.42994 45.65 4.77995 45 6.08995C44.57 6.94995 44 7.72996 43.54 8.59996C42.01 11.82 42.54 16.02 44.79 18.09C45.27 18.54 45.78 18.9999 46.4 18.4399Z" fill="#471F0F"/>
<path d="M27.1901 18.41C27.8801 17.79 27.0801 17.29 26.7201 16.86C24.5601 14.2 24.6101 11.43 26.2101 8.55004C26.7566 7.66818 27.2476 6.75308 27.6801 5.81005C28.0483 5.09929 28.2405 4.31047 28.2405 3.51C28.2405 2.70953 28.0483 1.9207 27.6801 1.20995C27.6295 1.08035 27.5524 0.962717 27.4537 0.864612C27.3551 0.766508 27.237 0.69013 27.1071 0.640247C26.9773 0.590364 26.8384 0.568096 26.6994 0.574939C26.5605 0.581783 26.4245 0.617639 26.3001 0.680042C25.8101 0.910042 25.8801 1.34998 26.1101 1.73998C27.2001 3.60998 26.3401 5.21998 25.3601 6.73998C24.2407 8.43107 23.5539 10.3713 23.3601 12.39C23.4304 14.3397 24.1323 16.2138 25.3601 17.73C25.8101 18.31 26.3501 19.15 27.1901 18.41Z" fill="#471F0F"/>
</svg>
