<svg width="47" height="17" viewBox="0 0 47 17" fill="none" xmlns="http://www.w3.org/2000/svg">
<path d="M1.92993 12.49C2.04049 13.1761 2.40312 13.7963 2.9469 14.2291C3.49068 14.6619 4.17641 14.8762 4.86987 14.83C6.64987 14.83 7.94983 13.83 7.94983 12.17V1.56995H9.86987V12.1899C9.86987 14.7899 7.74987 16.41 4.86987 16.41C1.98987 16.41 0.589902 15.01 0.149902 13.09L1.92993 12.49Z" fill="#471F0F"/>
<path d="M14.4102 11.1899V10.41C14.4102 6.99003 16.8501 5.18994 19.8301 5.18994C22.8101 5.18994 25.2701 6.99003 25.2701 10.41V11.1899C25.2701 14.6099 22.9501 16.39 19.8301 16.39C16.7101 16.39 14.4102 14.6099 14.4102 11.1899ZM23.4102 11.1899V10.45C23.4623 9.95541 23.4056 9.45545 23.2441 8.98511C23.0827 8.51477 22.8204 8.08553 22.4755 7.72729C22.1306 7.36906 21.7114 7.09056 21.2476 6.91138C20.7837 6.7322 20.2863 6.65657 19.7902 6.68994C17.7102 6.68994 16.2101 7.96995 16.2101 10.45V11.1899C16.2101 13.7099 17.7302 14.95 19.7902 14.95C20.2918 14.9918 20.7965 14.9218 21.2678 14.7449C21.7391 14.5679 22.1652 14.2885 22.5154 13.9269C22.8656 13.5652 23.1311 13.1303 23.2927 12.6536C23.4544 12.1768 23.5081 11.6701 23.4501 11.17L23.4102 11.1899Z" fill="#471F0F"/>
<path d="M29.6699 0.709961H31.6699V2.48999H29.6699V0.709961ZM29.7499 5.44995H31.6299V16H29.7499V5.44995Z" fill="#471F0F"/>
<path d="M36.71 5.44989H38.51V7.14997C38.957 6.53775 39.5447 6.04191 40.2234 5.70429C40.9021 5.36667 41.6521 5.19709 42.41 5.2099C45.27 5.2099 46.65 6.5499 46.65 9.2099V16.03H44.79V9.48993C44.8453 9.10676 44.8104 8.71605 44.6882 8.3487C44.5661 7.98135 44.3599 7.64747 44.0862 7.37372C43.8124 7.09998 43.4787 6.89384 43.1113 6.77167C42.744 6.6495 42.3531 6.61471 41.97 6.66999C41.1273 6.64099 40.3055 6.93559 39.6732 7.49347C39.0409 8.05136 38.6461 8.83022 38.5699 9.66999V16.05H36.71V5.44989Z" fill="#471F0F"/>
</svg>
