<svg width="61" height="20" viewBox="0 0 61 20" fill="none" xmlns="http://www.w3.org/2000/svg">
<path d="M0.110107 0.810059H2.00012V13.8101H9.64014V15.29H0.0800781L0.110107 0.810059Z" fill="#471F0F"/>
<path d="M13.1699 10.4301V9.65002C13.1699 6.23002 15.6098 4.43005 18.5898 4.43005C21.5698 4.43005 24.0299 6.23002 24.0299 9.65002V10.4301C24.0299 13.8501 21.7098 15.63 18.5898 15.63C15.4698 15.63 13.1699 13.8501 13.1699 10.4301ZM22.1699 10.4301V9.68994C22.2221 9.1954 22.1654 8.69556 22.0039 8.22522C21.8425 7.75488 21.5801 7.32552 21.2352 6.96729C20.8903 6.60905 20.4712 6.33055 20.0073 6.15137C19.5434 5.97219 19.0461 5.89669 18.5499 5.93005C16.4699 5.93005 14.9698 7.20994 14.9698 9.68994V10.4301C14.9698 12.9501 16.4899 14.1899 18.5499 14.1899C19.0516 14.2318 19.5563 14.1618 20.0276 13.9849C20.4989 13.8079 20.925 13.5285 21.2751 13.1669C21.6253 12.8052 21.8908 12.3703 22.0525 11.8936C22.2141 11.4168 22.2678 10.9101 22.2098 10.41L22.1699 10.4301Z" fill="#471F0F"/>
<path d="M36.77 13.1701C36.3765 13.7797 35.8289 14.2746 35.1827 14.6048C34.5365 14.9349 33.8145 15.0885 33.0899 15.0501C32.4219 15.0943 31.7521 14.9952 31.1254 14.7595C30.4988 14.5239 29.9297 14.157 29.4563 13.6836C28.9828 13.2102 28.6161 12.6412 28.3805 12.0145C28.1448 11.3879 28.0457 10.7181 28.0899 10.0501V9.44997C28.043 8.77611 28.1423 8.10012 28.3808 7.46816C28.6194 6.83619 28.9916 6.26325 29.4721 5.78847C29.9526 5.31368 30.53 4.9483 31.1648 4.7173C31.7995 4.4863 32.4767 4.39505 33.15 4.44997C33.8542 4.40928 34.5573 4.54758 35.1938 4.85182C35.8303 5.15606 36.3794 5.61634 36.79 6.18996V4.70998H38.63V14.39C38.63 17.61 36.45 19.1701 33.29 19.1701C31.01 19.1701 29.17 18.2701 28.41 16.7901C28.93 16.5301 29.4099 16.25 29.9699 15.99C30.3168 16.5494 30.8086 17.0046 31.393 17.3074C31.9775 17.6102 32.6329 17.7493 33.29 17.71C35.45 17.71 36.81 16.63 36.81 14.47L36.77 13.1701ZM29.91 9.44997V10.03C29.91 12.45 31.29 13.69 33.43 13.69C33.8503 13.7074 34.2698 13.6404 34.6638 13.4931C35.0578 13.3457 35.4182 13.121 35.724 12.832C36.0297 12.5431 36.2745 12.1959 36.4438 11.8108C36.6131 11.4257 36.7036 11.0106 36.7099 10.59V9.00002C36.6685 8.16519 36.298 7.38076 35.6795 6.8185C35.061 6.25624 34.245 5.96196 33.41 6.00002C32.9434 5.95445 32.4724 6.01193 32.0305 6.16847C31.5886 6.32501 31.1864 6.57678 30.8525 6.9059C30.5186 7.23502 30.2611 7.63351 30.0982 8.07314C29.9353 8.51276 29.8711 8.98275 29.91 9.44997Z" fill="#471F0F"/>
<path d="M43.6699 0H45.6699V1.78003H43.6699V0ZM43.7499 4.73999H45.6299V15.3199H43.7499V4.73999Z" fill="#471F0F"/>
<path d="M50.71 4.68989H52.51V6.38996C52.957 5.77774 53.5447 5.2819 54.2234 4.94428C54.9021 4.60666 55.6521 4.43708 56.41 4.44989C59.27 4.44989 60.65 5.78989 60.65 8.44989V15.27H58.79V8.72992C58.8453 8.34675 58.8104 7.95604 58.6882 7.58869C58.5661 7.22134 58.3599 6.88746 58.0862 6.61371C57.8124 6.33997 57.4787 6.13383 57.1113 6.01166C56.744 5.88949 56.3531 5.8547 55.97 5.90998C55.1273 5.88098 54.3055 6.1757 53.6732 6.73359C53.0409 7.29148 52.6461 8.07021 52.5699 8.90998V15.29H50.71V4.68989Z" fill="#471F0F"/>
</svg>
