<svg width="326" height="54" viewBox="0 0 326 54" fill="none" xmlns="http://www.w3.org/2000/svg">
<path d="M8.11998 49.61V4.29004H2.99998C2.29235 4.36444 1.58176 4.17966 0.999981 3.77002C0.807811 3.59678 0.6562 3.38331 0.55595 3.14478C0.4557 2.90626 0.40926 2.64854 0.419963 2.39002C0.40926 2.13151 0.4557 1.87379 0.55595 1.63526C0.6562 1.39673 0.807811 1.18326 0.999981 1.01002C1.58176 0.600377 2.29235 0.415602 2.99998 0.489996H26.88C31.62 0.489996 35.4733 1.85329 38.44 4.57996C39.8337 5.76653 40.954 7.24077 41.7239 8.90137C42.4937 10.562 42.895 12.3696 42.9 14.2C42.9 18.8666 40.41 22.62 35.43 25.46C39.3766 26.88 42.2733 28.7633 44.12 31.11C45.9058 33.3096 46.8804 36.0567 46.88 38.89C46.903 41.3261 46.2784 43.7246 45.07 45.84C43.7146 48.073 41.8066 49.919 39.53 51.2C37.0749 52.6618 34.2673 53.426 31.41 53.41H2.99998C2.28941 53.4843 1.57659 53.2918 0.999981 52.87C0.810448 52.6989 0.660376 52.4888 0.560222 52.2539C0.460068 52.0191 0.412212 51.7652 0.419963 51.51C0.40926 51.2515 0.4557 50.9938 0.55595 50.7553C0.6562 50.5167 0.807811 50.3033 0.999981 50.13C1.58403 49.7253 2.29277 49.541 2.99998 49.61H8.11998ZM11.92 24.01H25.36C28.0649 24.0395 30.746 23.5013 33.23 22.4301C34.9862 21.6495 36.477 20.3742 37.52 18.76C38.5011 17.3197 39.0366 15.6225 39.06 13.88C39.06 11.5 37.94 9.30005 35.71 7.30005C33.2873 5.2264 30.1656 4.15364 26.98 4.30005H11.92V24.01ZM11.92 49.61H31.14C33.3764 49.6664 35.5847 49.1022 37.52 47.98C39.2111 47.0186 40.6291 45.6419 41.64 43.98C42.5486 42.4699 43.0323 40.7423 43.04 38.98C43.0048 36.9416 42.3023 34.9709 41.04 33.37C39.6049 31.4968 37.6659 30.0712 35.45 29.26C32.2749 28.2013 28.9343 27.7269 25.59 27.86H11.92V49.61Z" fill="#471F0F"/>
<path d="M67.5599 29.8V49.6099H74.5599C75.2671 49.541 75.9759 49.7252 76.5599 50.13C76.7533 50.3027 76.9064 50.5159 77.0084 50.7544C77.1103 50.9928 77.1587 51.2508 77.1499 51.51C77.1558 51.7658 77.106 52.0199 77.0042 52.2547C76.9023 52.4895 76.7507 52.6994 76.5599 52.87C75.9812 53.2875 75.2701 53.4795 74.5599 53.41H58.6499C57.9557 53.4755 57.2616 53.2833 56.6999 52.87C56.5091 52.6994 56.3575 52.4895 56.2557 52.2547C56.1538 52.0199 56.1041 51.7658 56.1099 51.51C56.1011 51.2508 56.1494 50.9928 56.2514 50.7544C56.3533 50.5159 56.5065 50.3027 56.6999 50.13C57.2704 49.7366 57.9594 49.5529 58.6499 49.6099H63.7599V4.29H58.6499C57.9586 4.35572 57.2667 4.17119 56.6999 3.76998C56.5065 3.59723 56.3533 3.38406 56.2514 3.14559C56.1494 2.90712 56.1011 2.64918 56.1099 2.38998C56.1011 2.13077 56.1494 1.87283 56.2514 1.63436C56.3533 1.39589 56.5065 1.18272 56.6999 1.00997C57.2667 0.608762 57.9586 0.424228 58.6499 0.489951H81.6499C86.0838 0.367007 90.3902 1.98189 93.6499 4.98995C96.8899 7.98995 98.5099 11.3767 98.5099 15.15C98.4692 17.9821 97.4034 20.7035 95.5099 22.81C93.5099 25.21 90.1566 27.21 85.4499 28.81C88.0683 30.5817 90.4247 32.7124 92.4499 35.14C94.3766 37.4866 97.4665 42.3099 101.72 49.6099H104.61C105.317 49.541 106.026 49.7252 106.61 50.13C106.803 50.3027 106.956 50.5159 107.058 50.7544C107.16 50.9928 107.209 51.2508 107.2 51.51C107.206 51.7658 107.156 52.0199 107.054 52.2547C106.952 52.4895 106.801 52.6994 106.61 52.87C106.035 53.2954 105.321 53.4882 104.61 53.41H99.5499C94.8366 44.9967 91.1932 39.36 88.6199 36.5C86.1343 33.699 83.1155 31.4214 79.7399 29.8H67.5599ZM67.5599 26H77.9199C81.0143 26.0417 84.0822 25.4246 86.9199 24.1899C89.2077 23.2932 91.2308 21.831 92.7999 19.9399C93.9457 18.5213 94.5893 16.763 94.6299 14.9399C94.6299 12.4066 93.3566 9.99659 90.8099 7.70992C88.2622 5.41892 84.9352 4.18835 81.5099 4.26998H67.5099L67.5599 26Z" fill="#471F0F"/>
<path d="M123.15 27.8599V49.6099H152.37V38.4C152.292 37.6921 152.477 36.9802 152.89 36.4C153.063 36.2065 153.276 36.0535 153.514 35.9515C153.753 35.8495 154.011 35.8013 154.27 35.81C154.529 35.8013 154.787 35.8495 155.026 35.9515C155.264 36.0535 155.477 36.2065 155.65 36.4C156.063 36.9802 156.248 37.6921 156.17 38.4V53.4H114.24C113.529 53.4762 112.816 53.2836 112.24 52.8599C112.05 52.6889 111.9 52.4787 111.8 52.2439C111.7 52.009 111.652 51.7551 111.66 51.5C111.649 51.2414 111.696 50.9837 111.796 50.7452C111.896 50.5067 112.048 50.2932 112.24 50.12C112.824 49.7152 113.533 49.5309 114.24 49.5999H119.35V4.27999H114.24C113.532 4.35624 112.821 4.17129 112.24 3.75997C112.048 3.58672 111.896 3.37325 111.796 3.13472C111.696 2.8962 111.649 2.63848 111.66 2.37996C111.649 2.12145 111.696 1.86373 111.796 1.6252C111.896 1.38668 112.048 1.17321 112.24 0.999959C112.821 0.588632 113.532 0.40369 114.24 0.479939H154.18V13.55C154.258 14.2579 154.073 14.9698 153.66 15.55C153.487 15.7434 153.274 15.8965 153.036 15.9985C152.797 16.1004 152.539 16.1487 152.28 16.14C152.021 16.1487 151.763 16.1004 151.524 15.9985C151.286 15.8965 151.073 15.7434 150.9 15.55C150.487 14.9698 150.302 14.2579 150.38 13.55V4.27999H123.15V24.05H136.76V19.75C136.687 19.038 136.883 18.3243 137.31 17.75C137.488 17.5584 137.705 17.4074 137.947 17.3073C138.188 17.2072 138.449 17.1604 138.71 17.17C138.965 17.1642 139.218 17.2129 139.453 17.3129C139.687 17.413 139.898 17.562 140.07 17.75C140.494 18.3257 140.686 19.0392 140.61 19.75V32.14C140.675 32.8342 140.483 33.5283 140.07 34.0899C139.898 34.2792 139.688 34.4297 139.454 34.5315C139.219 34.6332 138.966 34.6839 138.71 34.68C138.448 34.6877 138.187 34.6389 137.946 34.5371C137.704 34.4353 137.487 34.2828 137.31 34.0899C136.893 33.5297 136.697 32.8355 136.76 32.14V27.8499L123.15 27.8599Z" fill="#471F0F"/>
<path d="M178.74 27.86V49.61H208V38.4001C207.931 37.6929 208.115 36.9841 208.52 36.4001C208.693 36.2066 208.906 36.0535 209.144 35.9516C209.383 35.8496 209.641 35.8013 209.9 35.8101C210.159 35.8013 210.417 35.8496 210.656 35.9516C210.894 36.0535 211.107 36.2066 211.28 36.4001C211.693 36.9803 211.878 37.6922 211.8 38.4001V53.4001H169.83C169.139 53.464 168.448 53.2718 167.89 52.86C167.697 52.6908 167.545 52.4811 167.443 52.246C167.341 52.0109 167.292 51.7562 167.3 51.5C167.289 51.2406 167.336 50.982 167.438 50.7432C167.541 50.5044 167.695 50.2915 167.89 50.12C168.455 49.7243 169.142 49.5402 169.83 49.6H174.94V4.28007H169.83C169.142 4.34425 168.454 4.15975 167.89 3.76005C167.695 3.58864 167.541 3.37568 167.438 3.13688C167.336 2.89809 167.289 2.63952 167.3 2.38005C167.289 2.12057 167.336 1.862 167.438 1.62321C167.541 1.38442 167.695 1.17146 167.89 1.00004C168.454 0.600349 169.142 0.415847 169.83 0.480024H209.77V13.5501C209.848 14.258 209.663 14.9699 209.25 15.5501C209.077 15.7435 208.864 15.8966 208.625 15.9986C208.387 16.1005 208.129 16.1488 207.87 16.1401C207.611 16.1488 207.353 16.1005 207.114 15.9986C206.876 15.8966 206.663 15.7435 206.49 15.5501C206.077 14.9699 205.892 14.258 205.97 13.5501V4.28007H178.74V24.0501H192.36V19.75C192.284 19.0393 192.476 18.3258 192.9 17.75C193.078 17.5585 193.295 17.4075 193.537 17.3074C193.778 17.2073 194.039 17.1605 194.3 17.1701C194.555 17.1637 194.808 17.2121 195.043 17.3122C195.278 17.4122 195.488 17.5616 195.66 17.75C196.083 18.3258 196.276 19.0393 196.2 19.75V32.1401C196.265 32.8343 196.073 33.5283 195.66 34.09C195.488 34.2798 195.278 34.4306 195.044 34.5324C194.809 34.6342 194.556 34.6846 194.3 34.6801C194.038 34.6877 193.777 34.6389 193.536 34.5372C193.294 34.4354 193.077 34.2829 192.9 34.09C192.487 33.5283 192.294 32.8343 192.36 32.1401V27.85L178.74 27.86Z" fill="#471F0F"/>
<path d="M265.14 53.41H228.54V47.89L259.39 4.60999V4.29004H234.11V15.46C234.184 16.172 233.988 16.886 233.56 17.46C233.383 17.6528 233.166 17.8053 232.924 17.9071C232.683 18.0089 232.422 18.0577 232.16 18.05C231.904 18.0539 231.651 18.0032 231.417 17.9015C231.182 17.7998 230.972 17.6492 230.8 17.46C230.381 16.8821 230.189 16.1703 230.26 15.46V0.459961H263.06V5.83997L232.21 49.1801V49.58H261.34V36.33C261.271 35.6227 261.455 34.914 261.86 34.33C262.031 34.1349 262.244 33.9806 262.483 33.8785C262.722 33.7764 262.981 33.7291 263.24 33.74C263.499 33.7312 263.757 33.7795 263.996 33.8815C264.234 33.9834 264.447 34.1365 264.62 34.33C265.025 34.914 265.209 35.6227 265.14 36.33V53.41Z" fill="#471F0F"/>
<path d="M304.31 29.53V49.61H314.17C314.858 49.5502 315.544 49.7343 316.11 50.13C316.305 50.3014 316.459 50.5144 316.562 50.7532C316.664 50.992 316.711 51.2505 316.7 51.51C316.708 51.7662 316.659 52.0209 316.557 52.256C316.455 52.4911 316.302 52.7007 316.11 52.87C315.551 53.2818 314.861 53.474 314.17 53.41H290.6C289.909 53.474 289.219 53.2818 288.66 52.87C288.469 52.6994 288.318 52.4896 288.216 52.2548C288.114 52.02 288.064 51.7659 288.07 51.51C288.06 51.2525 288.106 50.9959 288.204 50.7577C288.303 50.5195 288.451 50.3054 288.64 50.13C289.221 49.7178 289.932 49.5328 290.64 49.61H300.5V29.53L283.81 4.29004H281.55C280.862 4.35422 280.174 4.16972 279.61 3.77002C279.415 3.59861 279.261 3.38565 279.159 3.14686C279.057 2.90806 279.009 2.64949 279.02 2.39002C279.009 2.13055 279.057 1.87185 279.159 1.63306C279.261 1.39427 279.415 1.18143 279.61 1.01002C280.174 0.61032 280.862 0.425819 281.55 0.489996H292C292.688 0.425819 293.376 0.61032 293.94 1.01002C294.135 1.18143 294.289 1.39427 294.391 1.63306C294.494 1.87185 294.541 2.13055 294.53 2.39002C294.541 2.64949 294.494 2.90806 294.391 3.14686C294.289 3.38565 294.135 3.59861 293.94 3.77002C293.376 4.16972 292.688 4.35422 292 4.29004H288.25L302.45 25.6899L316.34 4.29004H312.63C311.923 4.35904 311.214 4.17474 310.63 3.77002C310.435 3.59861 310.281 3.38565 310.179 3.14686C310.077 2.90806 310.029 2.64949 310.04 2.39002C310.029 2.13055 310.077 1.87185 310.179 1.63306C310.281 1.39427 310.435 1.18143 310.63 1.01002C311.214 0.605295 311.923 0.421003 312.63 0.489996H323C323.708 0.415602 324.418 0.600377 325 1.01002C325.192 1.18326 325.344 1.39673 325.444 1.63526C325.544 1.87379 325.591 2.13151 325.58 2.39002C325.591 2.64854 325.544 2.90626 325.444 3.14478C325.344 3.38331 325.192 3.59678 325 3.77002C324.418 4.17966 323.708 4.36444 323 4.29004H320.74L304.31 29.53Z" fill="#471F0F"/>
</svg>
