<svg width="45" height="24" viewBox="0 0 45 24" fill="none" xmlns="http://www.w3.org/2000/svg">
<path d="M22.4899 13.25H2.23991C2.00991 13.25 1.76991 13.25 1.53991 13.25C1.22694 13.2247 0.935218 13.0816 0.723634 12.8496C0.512049 12.6176 0.396358 12.314 0.399911 12C0.39125 11.6891 0.496091 11.3856 0.694848 11.1464C0.893605 10.9071 1.17268 10.7485 1.47991 10.7C1.65625 10.6848 1.83357 10.6848 2.00991 10.7H43.0999C44.1499 10.7 44.7499 11.21 44.6999 12.08C44.6882 12.3725 44.5733 12.6515 44.3756 12.8675C44.178 13.0834 43.9103 13.2225 43.6199 13.26C43.3868 13.275 43.153 13.275 42.9199 13.26L22.4899 13.25Z" fill="#93572F"/>
<path d="M22.6001 0.780029H43.0701C44.0701 0.780029 44.6001 1.17003 44.6901 1.91003C44.7152 2.0829 44.7048 2.25907 44.6593 2.42773C44.6138 2.5964 44.5343 2.75398 44.4256 2.89075C44.3169 3.02752 44.1814 3.14059 44.0274 3.22302C43.8734 3.30545 43.7041 3.35544 43.5301 3.37C43.337 3.38513 43.1431 3.38513 42.9501 3.37H2.12006C1.85089 3.38402 1.58113 3.35708 1.32006 3.29004C1.03455 3.21928 0.78422 3.04772 0.615167 2.80701C0.446114 2.56629 0.369726 2.27256 0.400064 1.97998C0.411028 1.70204 0.515878 1.43602 0.697495 1.22534C0.879113 1.01467 1.12677 0.871743 1.40006 0.819946C1.64943 0.794748 1.9007 0.794748 2.15006 0.819946L22.6001 0.780029Z" fill="#93572F"/>
<path d="M22.4899 23.13H2.23991C2.00991 23.13 1.76991 23.13 1.53991 23.13C1.22694 23.1047 0.935218 22.9616 0.723634 22.7296C0.512049 22.4976 0.396358 22.194 0.399911 21.88C0.39125 21.5691 0.496091 21.2656 0.694848 21.0264C0.893605 20.7872 1.17268 20.6285 1.47991 20.58C1.65625 20.5648 1.83357 20.5648 2.00991 20.58H43.0999C44.1499 20.58 44.7499 21.1 44.6999 21.96C44.6882 22.2525 44.5733 22.5315 44.3756 22.7475C44.178 22.9634 43.9103 23.1025 43.6199 23.14C43.3868 23.155 43.153 23.155 42.9199 23.14L22.4899 23.13Z" fill="#93572F"/>
</svg>
