<svg width="35" height="34" viewBox="0 0 35 34" fill="none" xmlns="http://www.w3.org/2000/svg">
<path d="M26.9999 13.4001C26.9509 15.9079 26.2291 18.3566 24.9099 20.49C24.3599 21.37 24.3899 21.71 25.1199 22.49C27.8199 25.2 30.5298 27.89 33.2198 30.61C33.5624 30.9362 33.8258 31.3364 33.9899 31.7801C34.0978 32.14 34.0804 32.5259 33.9405 32.8747C33.8007 33.2234 33.5465 33.5143 33.2198 33.7C32.8776 33.9102 32.4739 33.997 32.0756 33.9461C31.6772 33.8951 31.3082 33.7096 31.0299 33.4201C29.6999 32.1301 28.3899 30.8 27.0299 29.49C25.5299 27.99 24.0299 26.49 22.5199 24.99C21.8199 24.29 21.5199 24.2601 20.6299 24.7801C18.7281 25.9746 16.5564 26.6716 14.3147 26.8069C12.073 26.9422 9.83317 26.5116 7.8015 25.5545C5.76983 24.5974 4.01148 23.1446 2.68834 21.33C1.36521 19.5153 0.519807 17.3971 0.229848 15.1701C-0.222554 11.6626 0.728972 8.11834 2.87719 5.30899C5.0254 2.49964 8.19634 0.652649 11.6998 0.170076C15.1111 -0.307285 18.5751 0.550337 21.3696 2.56424C24.1641 4.57815 26.0735 7.59286 26.6998 10.98C26.8398 11.76 26.8999 12.5801 26.9999 13.4001ZM23.3599 13.4001C23.3585 12.1101 23.1029 10.833 22.6074 9.642C22.1119 8.45099 21.3864 7.36941 20.4724 6.45914C19.5584 5.54886 18.4739 4.8278 17.2809 4.33719C16.0879 3.84658 14.8098 3.59606 13.5199 3.60001C10.9301 3.61579 8.45121 4.65298 6.62182 6.48612C4.79242 8.31925 3.76036 10.8003 3.74987 13.39C3.74724 14.6787 3.99878 15.9552 4.4901 17.1465C4.98142 18.3378 5.70287 19.4204 6.61315 20.3326C7.52343 21.2447 8.60462 21.9684 9.79491 22.4622C10.9852 22.9559 12.2613 23.21 13.5499 23.21C14.8401 23.214 16.1184 22.9626 17.311 22.4704C18.5037 21.9781 19.5871 21.2549 20.499 20.3421C21.4109 19.4293 22.1331 18.345 22.6241 17.1519C23.1151 15.9587 23.3651 14.6803 23.3599 13.39V13.4001Z" fill="#8F5834"/>
</svg>
